<?xml version="1.0" encoding="UTF-8" standalone="no"?>
<svg
   xmlns:dc="http://purl.org/dc/elements/1.1/"
   xmlns:cc="http://creativecommons.org/ns#"
   xmlns:rdf="http://www.w3.org/1999/02/22-rdf-syntax-ns#"
   xmlns:svg="http://www.w3.org/2000/svg"
   xmlns="http://www.w3.org/2000/svg"
   xmlns:sodipodi="http://sodipodi.sourceforge.net/DTD/sodipodi-0.dtd"
   xmlns:inkscape="http://www.inkscape.org/namespaces/inkscape"
   version="1.1"
   x="0px"
   y="0px"
   viewBox="0 0 170 100"
   enable-background="new 0 0 100 100"
   xml:space="preserve"
   id="svg2"
   inkscape:version="0.91 r13725"
   sodipodi:docname="bus.svg"
   width="170"
   height="100"
   inkscape:export-filename="C:\wamp\www\taxidoudou\css\img\bus.png"
   inkscape:export-xdpi="90"
   inkscape:export-ydpi="90"><metadata
     id="metadata14"><rdf:RDF><cc:Work
         rdf:about=""><dc:format>image/svg+xml</dc:format><dc:type
           rdf:resource="http://purl.org/dc/dcmitype/StillImage" /><dc:title></dc:title></cc:Work></rdf:RDF></metadata><defs
     id="defs12" /><sodipodi:namedview
     pagecolor="#ffffff"
     bordercolor="#666666"
     borderopacity="1"
     objecttolerance="10"
     gridtolerance="10"
     guidetolerance="10"
     inkscape:pageopacity="0"
     inkscape:pageshadow="2"
     inkscape:window-width="1920"
     inkscape:window-height="1017"
     id="namedview10"
     showgrid="false"
     fit-margin-top="10"
     fit-margin-left="0"
     fit-margin-right="0"
     fit-margin-bottom="0"
     inkscape:zoom="2.36"
     inkscape:cx="93.64437"
     inkscape:cy="40.365561"
     inkscape:window-x="1432"
     inkscape:window-y="-8"
     inkscape:window-maximized="1"
     inkscape:current-layer="svg2" /><g
     id="g3342"
     transform="matrix(-1.6999949,0,0,1.7645537,169.99949,-32.537973)"
     style="fill:#ffffff"><circle
       id="circle4"
       r="7.1557598"
       cy="67.955078"
       cx="16.998051"
       style="fill:#ffffff" /><circle
       id="circle6"
       r="7.15625"
       cy="67.955078"
       cx="83.091797"
       style="fill:#ffffff" /><path
       id="path8"
       d="m 94,24.10693 -81.6123,0 c -4.10254,0 -7.72314,2.69922 -8.88721,6.6333 -3.24512,10.96778 -4.04297,23.37989 -3.17334,36.70997 0.13721,2.10449 1.88184,3.73535 3.99121,3.73535 l 3.28857,0 C 7.25781,70.17188 7.05908,69.08789 7.05908,67.95508 c 0,-5.49023 4.4502,-9.93945 9.93896,-9.93945 5.48876,0 9.93848,4.44922 9.93848,9.93945 0,1.13281 -0.19873,2.2168 -0.54785,3.23047 l 47.3125,0 c -0.34961,-1.01367 -0.54785,-2.09766 -0.54785,-3.23047 0,-5.49023 4.4502,-9.93945 9.93945,-9.93945 5.4873,0 9.93848,4.44922 9.93848,9.93945 0,1.13281 -0.19922,2.2168 -0.54785,3.23047 l 3.5166,0 c 2.20898,0 4,-1.79102 4,-4 l 0,-37.07862 c 0,-3.31347 -2.68652,-6 -6,-6 z m -70,21.70118 -5.86328,4.45313 -13.70801,0 C 4.85449,43.56006 5.87256,37.479 7.51465,31.92725 c 0.6333,-2.14063 2.63818,-3.63574 4.87402,-3.63574 l 11.61133,0 0,17.5166 z m 23,-0.77784 -19,0 0,-16.73877 19,0 0,16.73877 z m 25,0 -21,0 0,-16.73877 21,0 0,16.73877 z m 23.81543,0 -19.81543,0 0,-16.73877 18.21387,0 c 0.88281,0 1.60156,0.71875 1.60156,1.60205 l 0,15.13672 z"
       inkscape:connector-curvature="0"
       style="fill:#ffffff" /></g></svg>