<?xml version="1.0" encoding="UTF-8" standalone="no"?>
<svg
   xmlns:dc="http://purl.org/dc/elements/1.1/"
   xmlns:cc="http://creativecommons.org/ns#"
   xmlns:rdf="http://www.w3.org/1999/02/22-rdf-syntax-ns#"
   xmlns:svg="http://www.w3.org/2000/svg"
   xmlns="http://www.w3.org/2000/svg"
   xmlns:sodipodi="http://sodipodi.sourceforge.net/DTD/sodipodi-0.dtd"
   xmlns:inkscape="http://www.inkscape.org/namespaces/inkscape"
   version="1.1"
   x="0px"
   y="0px"
   viewBox="-2500 0 0 47.555976"
   enable-background="new 0 0 100 100"
   xml:space="preserve"
   id="svg2"
   inkscape:version="0.91 r13725"
   width="100"
   height="100"
   sodipodi:docname="noun_146806_cc.svg"
   inkscape:export-filename="C:\wamp\www\taxidoudou\css\img\24_24.png"
   inkscape:export-xdpi="90"
   inkscape:export-ydpi="90"><metadata
     id="metadata16"><rdf:RDF><cc:Work
         rdf:about=""><dc:format>image/svg+xml</dc:format><dc:type
           rdf:resource="http://purl.org/dc/dcmitype/StillImage" /><dc:title></dc:title></cc:Work></rdf:RDF></metadata><defs
     id="defs14" /><sodipodi:namedview
     pagecolor="#ffffff"
     bordercolor="#666666"
     borderopacity="1"
     objecttolerance="10"
     gridtolerance="10"
     guidetolerance="10"
     inkscape:pageopacity="0"
     inkscape:pageshadow="2"
     inkscape:window-width="1680"
     inkscape:window-height="987"
     id="namedview12"
     showgrid="false"
     showguides="true"
     inkscape:guide-bbox="true"
     fit-margin-top="5"
     fit-margin-left="2.5"
     fit-margin-right="2.5"
     fit-margin-bottom="5"
     inkscape:zoom="0.944"
     inkscape:cx="-154.99972"
     inkscape:cy="43.261315"
     inkscape:window-x="3352"
     inkscape:window-y="14"
     inkscape:window-maximized="1"
     inkscape:current-layer="svg2" /><g
     id="g3028"
     transform="matrix(1.087504,0,0,1.083215,130.67,-10.677836)"
     style="fill:#ffffff"><path
       style="fill:#ffffff"
       inkscape:connector-curvature="0"
       id="path4"
       d="m -77.672037,32.94443 c -1.235,0 -2.228,1.002 -2.228,2.227 l 0,19.667 c -1.11,0.727 -1.847,1.978 -1.847,3.398 0,2.247 1.823,4.085 4.074,4.085 1.427,0 2.675,-0.747 3.402,-1.852 l 21.46,0 c 1.226,0 2.225,-0.995 2.225,-2.233 0,-1.224 -0.999,-2.221 -2.225,-2.221 l -21.46,0 c -0.313,-0.471 -0.703,-0.875 -1.178,-1.177 l 0,-19.667 c 0.002,-1.225 -0.995,-2.227 -2.223,-2.227" /><path
       style="fill:#ffffff"
       inkscape:connector-curvature="0"
       id="path6"
       d="m -76.316037,14.47343 c 22.071,0 40.12,17.306 41.414,39.053 l 4.401,0 -8.471,14.674 -8.479,-14.673 4.059,0 c -1.28,-17.065 -15.538,-30.556 -32.924,-30.556 -18.221,0 -33.044003,14.816 -33.044003,33.044 0,18.222 14.823003,33.044 33.044003,33.044 6.312,0 12.455,-1.789 17.74,-5.168 3.869,-2.469 7.122,-5.638 9.686,-9.439 l 7.052,4.751 c -3.216,4.776 -7.314,8.761 -12.162,11.849 -6.665,4.253 -14.379,6.507 -22.315,6.507 -22.904,0 -41.542003,-18.638 -41.542003,-41.543 -0.002,-22.911 18.637003,-41.543 41.541003,-41.543" /></g></svg>