<?xml version="1.0" encoding="UTF-8" standalone="no"?>
<svg
   xmlns:dc="http://purl.org/dc/elements/1.1/"
   xmlns:cc="http://creativecommons.org/ns#"
   xmlns:rdf="http://www.w3.org/1999/02/22-rdf-syntax-ns#"
   xmlns:svg="http://www.w3.org/2000/svg"
   xmlns="http://www.w3.org/2000/svg"
   xmlns:sodipodi="http://sodipodi.sourceforge.net/DTD/sodipodi-0.dtd"
   xmlns:inkscape="http://www.inkscape.org/namespaces/inkscape"
   version="1.1"
   x="0px"
   y="0px"
   viewBox="0 0 47.884877 47.999999"
   enable-background="new 0 0 100 100"
   xml:space="preserve"
   id="svg2"
   inkscape:version="0.48.4 r9939"
   width="100%"
   height="100%"
   sodipodi:docname="noun_21797_cc.svg"><metadata
     id="metadata14"><rdf:RDF><cc:Work
         rdf:about=""><dc:format>image/svg+xml</dc:format><dc:type
           rdf:resource="http://purl.org/dc/dcmitype/StillImage" /><dc:title></dc:title></cc:Work></rdf:RDF></metadata><defs
     id="defs12" /><sodipodi:namedview
     pagecolor="#ffffff"
     bordercolor="#666666"
     borderopacity="1"
     objecttolerance="10"
     gridtolerance="10"
     guidetolerance="10"
     inkscape:pageopacity="0"
     inkscape:pageshadow="2"
     inkscape:window-width="1920"
     inkscape:window-height="1017"
     id="namedview10"
     showgrid="false"
     fit-margin-top="0"
     fit-margin-left="0"
     fit-margin-right="0"
     fit-margin-bottom="0"
     inkscape:zoom="1.888"
     inkscape:cx="19.390267"
     inkscape:cy="57.861387"
     inkscape:window-x="-8"
     inkscape:window-y="-8"
     inkscape:window-maximized="1"
     inkscape:current-layer="svg2" /><path
     clip-rule="evenodd"
     d="m 3.1388318,1.7904368 c 1.9193263,-1.92077897 7.7082862,-2.24074697 7.7533032,-1.22469097 0.04308,1.01557397 5.215824,12.28126917 5.261811,13.29684217 0.04405,1.016056 -3.411706,4.478105 -4.422437,5.49271 -1.001051,1.004439 6.759029,9.7951 6.905702,9.96065 0.167003,0.148125 8.937332,7.927569 9.938867,6.924582 1.010248,-1.01509 4.46552,-4.477622 5.478673,-4.432604 1.013152,0.04502 12.252708,5.229378 13.266345,5.273428 1.012668,0.04647 0.694151,5.848016 -1.224207,7.771214 -1.637115,1.640988 -10.12136,7.603242 -24.875243,-3.042845 -1.618237,-0.933282 -4.181373,-3.073827 -8.066496,-6.965727 -0.0034,-0.0024 -0.0049,-0.0038 -0.0058,-0.0058 -0.0054,-0.0029 -0.0058,-0.0058 -0.0097,-0.0092 -0.0024,-0.0029 -0.0058,-0.0054 -0.0087,-0.0092 -0.0029,-0.0024 -0.0063,-0.0054 -0.0092,-0.0082 C 9.2385622,30.917727 7.1047941,28.348298 6.1749011,26.728125 -4.4445645,11.938421 1.5026848,3.4328758 3.1388318,1.7904368 z"
     id="path4"
     inkscape:connector-curvature="0"
     style="fill-rule:evenodd" /></svg>