<?xml version="1.0" encoding="UTF-8" standalone="no"?>
<svg
   xmlns:dc="http://purl.org/dc/elements/1.1/"
   xmlns:cc="http://creativecommons.org/ns#"
   xmlns:rdf="http://www.w3.org/1999/02/22-rdf-syntax-ns#"
   xmlns:svg="http://www.w3.org/2000/svg"
   xmlns="http://www.w3.org/2000/svg"
   xmlns:sodipodi="http://sodipodi.sourceforge.net/DTD/sodipodi-0.dtd"
   xmlns:inkscape="http://www.inkscape.org/namespaces/inkscape"
   version="1.1"
   x="0px"
   y="0px"
   viewBox="0 0 145 100"
   enable-background="new 0 0 100 100"
   xml:space="preserve"
   id="svg2"
   inkscape:version="0.91 r13725"
   sodipodi:docname="remorque.svg"
   width="145"
   height="100"
   inkscape:export-filename="C:\wamp\www\taxidoudou\css\img\remorque.png"
   inkscape:export-xdpi="90"
   inkscape:export-ydpi="90"><metadata
     id="metadata12"><rdf:RDF><cc:Work
         rdf:about=""><dc:format>image/svg+xml</dc:format><dc:type
           rdf:resource="http://purl.org/dc/dcmitype/StillImage" /><dc:title></dc:title></cc:Work></rdf:RDF></metadata><defs
     id="defs10" /><sodipodi:namedview
     pagecolor="#ffffff"
     bordercolor="#666666"
     borderopacity="1"
     objecttolerance="10"
     gridtolerance="10"
     guidetolerance="10"
     inkscape:pageopacity="0"
     inkscape:pageshadow="2"
     inkscape:window-width="1680"
     inkscape:window-height="987"
     id="namedview8"
     showgrid="false"
     fit-margin-top="20"
     fit-margin-left="0"
     fit-margin-right="0"
     fit-margin-bottom="0"
     inkscape:zoom="1.668772"
     inkscape:cx="-36.823824"
     inkscape:cy="-27.185591"
     inkscape:window-x="3352"
     inkscape:window-y="14"
     inkscape:window-maximized="1"
     inkscape:current-layer="svg2" /><ellipse
     cx="56.644215"
     cy="49.159088"
     id="circle4"
     style="fill:#4d4d4d"
     rx="7.2331777"
     ry="7.4866314" /><path
     d="m 142.18206,74.79753 -26.21685,0 0,-54.79753 -112.326104,0 0,53.86708 -1.8732122,0 C 0.79513993,73.86708 0,74.62288 0,75.5456 l 0,4.16074 c 0,0.92272 0.79513993,1.67851 1.7658938,1.67851 l 1.8732122,0 0,0.87017 33.356843,0 c 0,9.80062 8.357921,17.74498 18.66871,17.74498 10.310803,0 18.668713,-7.94436 18.668713,-17.74498 l 41.631838,0 0,-2.09891 26.21685,0 c 1.54962,0 2.81794,-1.20557 2.81794,-2.67852 0,-1.47295 -1.26832,-2.68006 -2.81794,-2.68006 z M 55.664659,93.21175 c -6.364371,0 -11.525454,-4.90418 -11.525454,-10.95518 0,-6.05101 5.159461,-10.95518 11.525454,-10.95518 6.366006,0 11.525467,4.90417 11.525467,10.95518 0,6.04946 -5.161088,10.95518 -11.525467,10.95518 z"
     id="path6"
     inkscape:connector-curvature="0"
     style="fill:#ffffff"
     inkscape:export-xdpi="90"
     inkscape:export-ydpi="90" /></svg>